<svg xmlns="http://www.w3.org/2000/svg" xmlns:xlink="http://www.w3.org/1999/xlink" width="40" height="40" viewBox="0 0 40 40"><defs><clipPath id="clip-path"><rect id="Rectangle_408" data-name="Rectangle 408" width="40" height="40" transform="translate(-3 -3)" fill="#da2a20"></rect></clipPath></defs><g id="Group_312" data-name="Group 312" transform="translate(3 3)"><g id="Group_312-2" data-name="Group 312" clip-path="url(#clip-path)"><path id="Path_1675" data-name="Path 1675" d="M0,187.2a6.9,6.9,0,0,1,1.251-2.321A6.085,6.085,0,0,1,3.538,183.2c.078-.033.155-.069.23-.1-.02-.122-.112-.158-.172-.217a3.3,3.3,0,0,1-.684-3.908,3.329,3.329,0,0,1,6.273,1.042,3.219,3.219,0,0,1-.919,2.772c-.286.3-.288.294.1.469a5.849,5.849,0,0,1,2.071,1.53c.112.13.177.2.317.013a7.848,7.848,0,0,1,3.777-2.721c.04-.014.09-.014.1-.07a4.287,4.287,0,1,1,4.865.007c.378.163.759.306,1.122.487a7.65,7.65,0,0,1,2.725,2.244c.144.191.218.212.383.018a5.469,5.469,0,0,1,2.17-1.554c.287-.114.239-.177.055-.354a3.283,3.283,0,0,1-.717-3.79,3.35,3.35,0,0,1,3.367-1.91,3.313,3.313,0,0,1,2.883,2.532,3.233,3.233,0,0,1-.892,3.146c-.074.078-.183.126-.225.265a6.552,6.552,0,0,1,1.634.926,6.059,6.059,0,0,1,2.076,3.06.616.616,0,0,0,.061.113v.665a.366.366,0,0,0-.053.081,1.8,1.8,0,0,1-1.878,1.378c-.722,0-1.444,0-2.167,0-1.578,0-3.155.006-4.733-.006-.267,0-.385.052-.357.342a5.312,5.312,0,0,1,0,.764,2.457,2.457,0,0,1-2.4,2.355q-5.483.029-10.966,0a2.477,2.477,0,0,1-2.319-1.831,4.53,4.53,0,0,1-.086-1.157c-.009-.547.066-.467-.484-.468q-3.4,0-6.8,0a1.838,1.838,0,0,1-1.472-.645A3,3,0,0,1,0,187.861Zm17.041,4.525c1.789,0,3.578,0,5.367,0a1.4,1.4,0,0,0,1.457-1.2,8.377,8.377,0,0,0-.009-1.992,6.874,6.874,0,0,0-12.594-2.62,6.987,6.987,0,0,0-1.02,4.223,1.478,1.478,0,0,0,1.6,1.588q2.6,0,5.2,0m.03-16.459a3.2,3.2,0,1,0,3.2,3.188,3.192,3.192,0,0,0-3.2-3.188m11.646,12.993c1.188,0,2.377.006,3.565,0a.714.714,0,0,0,.737-.981,4.774,4.774,0,0,0-3.874-3.388,4.836,4.836,0,0,0-4.887,1.895.312.312,0,0,0-.033.386,6.82,6.82,0,0,1,.613,1.819c.041.222.129.278.347.276,1.177-.011,2.354-.005,3.532-.005m-23.3,0c1.166,0,2.333-.005,3.5,0,.233,0,.351-.041.394-.3a5.962,5.962,0,0,1,.574-1.727.414.414,0,0,0-.06-.527A4.849,4.849,0,0,0,5,183.882a4.79,4.79,0,0,0-3.838,3.259c-.252.674.068,1.112.792,1.114,1.155,0,2.31,0,3.465,0M26,180.48a2.264,2.264,0,0,0,2.276,2.248,2.261,2.261,0,1,0-.034-4.522A2.249,2.249,0,0,0,26,180.48M8.144,180.5a2.265,2.265,0,1,0-4.529-.048,2.265,2.265,0,0,0,4.529.048" transform="translate(0 -158.711)" fill="#da2a20"></path><path id="Path_1676" data-name="Path 1676" d="M0,51.223a1.11,1.11,0,0,1,1.056-.533c.744-.011,1.487-.068,2.23-.095a.345.345,0,0,0,.358-.266c.272-.749.565-1.491.84-2.239a.816.816,0,0,1,.762-.634c.353-.013.6.194.765.623.286.744.577,1.486.847,2.236a.363.363,0,0,0,.38.282c.721.025,1.443.064,2.164.1.133.006.267.008.4.024a.756.756,0,0,1,.4,1.354c-.646.525-1.29,1.053-1.95,1.559a.394.394,0,0,0-.153.5c.223.765.426,1.536.631,2.306a.762.762,0,0,1-.266.917.8.8,0,0,1-.96-.05c-.674-.449-1.358-.883-2.03-1.335a.34.34,0,0,0-.444,0c-.672.452-1.356.886-2.031,1.333a.8.8,0,0,1-.96.052.767.767,0,0,1-.258-.949c.193-.716.363-1.44.592-2.144a.566.566,0,0,0-.252-.741c-.554-.407-1.074-.86-1.616-1.283A1.962,1.962,0,0,1,0,51.689Zm8.916.521c-.782-.041-1.458-.083-2.134-.11A.785.785,0,0,1,6.02,51.1c-.129-.33-.243-.666-.377-.994a6.363,6.363,0,0,0-.406-.973c-.248.653-.487,1.261-.709,1.875a.853.853,0,0,1-.868.634c-.511.006-1.021.044-1.531.072-.147.008-.293.027-.514.048.557.449,1.037.858,1.542,1.234a.922.922,0,0,1,.362,1.133c-.19.611-.342,1.233-.529,1.917.632-.412,1.208-.782,1.778-1.161a.8.8,0,0,1,.962-.008c.166.111.334.219.5.328l1.284.831c-.189-.7-.337-1.31-.521-1.911a.919.919,0,0,1,.364-1.131c.506-.374.985-.784,1.558-1.245" transform="translate(0 -43.237)" fill="#da2a20"></path><path id="Path_1677" data-name="Path 1677" d="M276.337,51.691a2.009,2.009,0,0,1-.508.556c-.552.43-1.079.891-1.644,1.3a.545.545,0,0,0-.224.719c.218.685.388,1.385.576,2.08.138.513.073.8-.243,1.013a.832.832,0,0,1-1.016-.088c-.644-.434-1.3-.845-1.945-1.282a.378.378,0,0,0-.5,0c-.652.442-1.32.859-1.975,1.3a.817.817,0,0,1-.989.068c-.3-.2-.377-.517-.252-.982.2-.748.4-1.5.619-2.241a.413.413,0,0,0-.18-.526c-.624-.48-1.23-.985-1.848-1.474a.781.781,0,0,1-.337-.9.772.772,0,0,1,.8-.534c.81-.043,1.62-.081,2.43-.11a.363.363,0,0,0,.381-.28c.271-.749.562-1.492.848-2.236.165-.431.411-.637.764-.624a.816.816,0,0,1,.763.633c.275.748.569,1.489.84,2.239a.345.345,0,0,0,.358.267c.744.027,1.487.083,2.23.095a1.109,1.109,0,0,1,1.057.533Zm-1.685.128-.01-.077c-.651-.035-1.3-.087-1.953-.1a.871.871,0,0,1-.887-.653c-.217-.609-.458-1.21-.692-1.824-.128.086-.135.205-.173.3-.2.5-.4,1.008-.578,1.52a.863.863,0,0,1-.886.654c-.577.01-1.153.054-1.729.088-.078,0-.173-.018-.246.079.52.417,1.025.831,1.54,1.231a.848.848,0,0,1,.324,1c-.163.563-.311,1.13-.462,1.7-.021.077-.079.158.005.254.549-.358,1.1-.706,1.64-1.075a.865.865,0,0,1,1.076,0c.55.373,1.111.728,1.722,1.127-.192-.709-.357-1.36-.546-2a.837.837,0,0,1,.327-.991c.515-.4,1.019-.816,1.527-1.225" transform="translate(-242.196 -43.238)" fill="#da2a20"></path><path id="Path_1678" data-name="Path 1678" d="M186.661,0A.81.81,0,0,1,187,.772c-.022.542,0,1.086-.007,1.629,0,.389-.215.616-.549.607s-.511-.229-.515-.607c0-.543.014-1.087-.007-1.629A.806.806,0,0,1,186.261,0Z" transform="translate(-169.39)" fill="#da2a20"></path><path id="Path_1679" data-name="Path 1679" d="M140.922,57.5a.833.833,0,0,1-.5-.18c-.667-.438-1.341-.867-2-1.317a.4.4,0,0,0-.53,0c-.651.443-1.315.866-1.976,1.294a.79.79,0,0,1-.986.053.8.8,0,0,1-.244-.956c.2-.691.353-1.4.581-2.078a.627.627,0,0,0-.277-.824c-.59-.433-1.147-.91-1.72-1.366a.768.768,0,0,1,.451-1.418c.8-.044,1.6-.082,2.4-.106a.423.423,0,0,0,.452-.329c.266-.751.568-1.489.843-2.236a.78.78,0,0,1,.729-.58.762.762,0,0,1,.757.584c.284.733.578,1.462.835,2.2a.463.463,0,0,0,.5.36c.677.018,1.353.058,2.03.089.122.006.245.005.366.017a.756.756,0,0,1,.746.554.745.745,0,0,1-.308.845c-.639.515-1.275,1.034-1.923,1.539A.354.354,0,0,0,141,54.1c.235.807.453,1.62.664,2.434a.749.749,0,0,1-.74.969m.819-5.686-.029-.071c-.665-.035-1.329-.08-1.994-.1a.811.811,0,0,1-.806-.573c-.205-.549-.412-1.1-.626-1.645-.032-.081-.02-.2-.166-.23-.233.611-.471,1.219-.694,1.831a.838.838,0,0,1-.844.617c-.544.011-1.087.047-1.63.081a.645.645,0,0,0-.386.08l1.605,1.289a.781.781,0,0,1,.286.887q-.235.848-.461,1.7c-.024.088-.087.18.01.3.557-.363,1.114-.723,1.666-1.089a.8.8,0,0,1,.962-.009c.185.123.372.241.558.362l1.137.744a.4.4,0,0,0-.011-.327c-.144-.534-.276-1.072-.436-1.6a.851.851,0,0,1,.334-1.02c.516-.4,1.017-.813,1.524-1.22" transform="translate(-121.09 -43.238)" fill="#da2a20"></path><path id="Path_1680" data-name="Path 1680" d="M224.291,31.978a.537.537,0,0,1-.218.4c-.693.623-1.383,1.248-2.08,1.867a.535.535,0,1,1-.707-.793c.69-.626,1.385-1.247,2.078-1.869a.53.53,0,0,1,.64-.119.511.511,0,0,1,.287.515" transform="translate(-201.406 -28.61)" fill="#da2a20"></path><path id="Path_1681" data-name="Path 1681" d="M129.23,34.447a.591.591,0,0,1-.421-.194c-.667-.6-1.337-1.2-2-1.8-.309-.28-.357-.6-.138-.838s.529-.237.847.046c.68.6,1.353,1.216,2.031,1.822a.546.546,0,0,1,.177.656.494.494,0,0,1-.493.311" transform="translate(-115.283 -28.64)" fill="#da2a20"></path></g></g></svg>