<svg xmlns="http://www.w3.org/2000/svg" xmlns:xlink="http://www.w3.org/1999/xlink" width="40" height="40" viewBox="0 0 40 40"><defs><clipPath id="clip-path"><rect id="Rectangle_422" data-name="Rectangle 422" width="40" height="40" transform="translate(-4 -4)" fill="#ed1b24"></rect></clipPath></defs><g id="Group_386" data-name="Group 386" transform="translate(4 4)"><g id="Group_385" data-name="Group 385" clip-path="url(#clip-path)"><path id="Path_1790" data-name="Path 1790" d="M32.768,19.459c-.106.638-.188,1.282-.323,1.914a12.429,12.429,0,0,1-1.7,4.113.645.645,0,1,1-1.075-.687,11.274,11.274,0,0,0,1.7-4.743,11.39,11.39,0,0,0-3.252-9.686A11.637,11.637,0,1,0,17.559,29.949a11.4,11.4,0,0,0,8.417-1.5c.51-.311.861-.294,1.093.061s.087.716-.421,1.032A12.932,12.932,0,0,1,7.9,23.479a.476.476,0,0,0-.536-.351c-1.291.015-2.581.007-3.872.006a3.105,3.105,0,0,1-.351-.012.624.624,0,0,1-.581-.612.631.631,0,0,1,.584-.644,2.65,2.65,0,0,1,.319-.01H7.3l-.4-2.46H5.88c-.587,0-1.173.006-1.76,0a.637.637,0,1,1,0-1.273c.811-.01,1.621,0,2.432,0h.338L7.2,15.661H6.856q-2.976,0-5.952,0a1.876,1.876,0,0,1-.444-.041A.627.627,0,0,1,.55,14.393,2.864,2.864,0,0,1,.9,14.382c2.133,0,4.267,0,6.4,0a.376.376,0,0,0,.412-.285c.3-.725.63-1.437.958-2.174-.084,0-.184-.015-.285-.015-1.088,0-2.176,0-3.264,0-.464,0-.76-.251-.761-.635s.3-.642.759-.643c1.387,0,2.773-.005,4.16,0a.609.609,0,0,0,.538-.246A12.724,12.724,0,0,1,16.741,6c.081-.02.16-.051.251-.081V4.316a2.2,2.2,0,0,1-1.556-1.526A2.158,2.158,0,0,1,17.472.025c1.567-.037,3.136-.027,4.7,0a2.145,2.145,0,0,1,2.109,1.87,2.152,2.152,0,0,1-1.393,2.332c-.175.067-.247.143-.24.337.016.446,0,.894,0,1.311.768.267,1.534.468,2.246.79a12.741,12.741,0,0,1,7.75,10.217c.041.262.077.524.115.787ZM19.816,3.085c.746,0,1.492.014,2.237-.009a1.278,1.278,0,0,0,.622-.189.819.819,0,0,0,.307-.962.9.9,0,0,0-.933-.631q-2.2-.008-4.41,0a.907.907,0,0,0-1,.917.9.9,0,0,0,1.007.873c.724,0,1.449,0,2.173,0m1.543,1.3H18.312V5.664h3.047Z" transform="translate(0 0)" fill="#ed1b24"></path><path id="Path_1791" data-name="Path 1791" d="M115.96,110.752a9.924,9.924,0,1,1,9.918,9.946,9.927,9.927,0,0,1-9.918-9.946m9.929-8.629a8.648,8.648,0,1,0,8.639,8.648,8.644,8.644,0,0,0-8.639-8.648" transform="translate(-106.045 -92.22)" fill="#ed1b24"></path><path id="Path_1792" data-name="Path 1792" d="M1.28,256.311a.63.63,0,0,1-.631.63A.63.63,0,0,1,0,256.293a.638.638,0,0,1,1.276.017" transform="translate(-0.004 -233.815)" fill="#ed1b24"></path><path id="Path_1793" data-name="Path 1793" d="M326.892,312.4a.632.632,0,0,1,0-1.264.632.632,0,1,1,0,1.264" transform="translate(-298.369 -284.537)" fill="#ed1b24"></path><path id="Path_1794" data-name="Path 1794" d="M195.77,163.962a1.983,1.983,0,0,1-1.867-2.633.353.353,0,0,0-.1-.438c-.394-.374-.775-.763-1.156-1.151a.643.643,0,0,1-.075-.962.66.66,0,0,1,.987.067c.388.381.774.765,1.152,1.156a.324.324,0,0,0,.41.1,1.791,1.791,0,0,1,1.313,0,.328.328,0,0,0,.411-.1q1.4-1.409,2.8-2.807c.068-.068.133-.139.207-.2a.637.637,0,0,1,.871.021.63.63,0,0,1,.03.869c-.174.2-.371.383-.559.571-.8.8-1.594,1.6-2.4,2.394a.422.422,0,0,0-.133.515,1.984,1.984,0,0,1-1.887,2.6m.016-2.691a.7.7,0,0,0-.717.7.7.7,0,0,0,1.409.025.7.7,0,0,0-.692-.721" transform="translate(-175.935 -143.425)" fill="#ed1b24"></path><path id="Path_1795" data-name="Path 1795" d="M225.809,130.38c0,.117.008.234,0,.35a.633.633,0,0,1-1.26.046,3.469,3.469,0,0,1,0-.762.634.634,0,0,1,1.261.047c.008.105,0,.212,0,.318" transform="translate(-205.328 -118.397)" fill="#ed1b24"></path><path id="Path_1796" data-name="Path 1796" d="M298.695,209.555c.106,0,.213-.006.318,0a.638.638,0,0,1,.607.585.619.619,0,0,1-.515.665,3.2,3.2,0,0,1-.823,0,.606.606,0,0,1-.52-.687.617.617,0,0,1,.615-.569c.106-.006.212,0,.318,0" transform="translate(-272.299 -191.634)" fill="#ed1b24"></path><path id="Path_1797" data-name="Path 1797" d="M224.489,283.483c0-.107-.006-.214,0-.32a.635.635,0,0,1,1.267-.036,4.175,4.175,0,0,1,.006.639.638.638,0,1,1-1.275-.027c0-.085,0-.171,0-.256Z" transform="translate(-205.292 -258.388)" fill="#ed1b24"></path><path id="Path_1798" data-name="Path 1798" d="M145.449,210.642A3.612,3.612,0,0,1,145,210.6a.624.624,0,0,1-.491-.626.616.616,0,0,1,.551-.605,4.574,4.574,0,0,1,.7-.008.608.608,0,0,1,.609.612.619.619,0,0,1-.576.648,2.776,2.776,0,0,1-.351,0v.021" transform="translate(-132.157 -191.449)" fill="#ed1b24"></path></g></g></svg>