<svg xmlns="http://www.w3.org/2000/svg" xmlns:xlink="http://www.w3.org/1999/xlink" width="372.563" height="263.888" viewBox="0 0 372.563 263.888"><defs><clipPath id="clip-path"><rect id="Rectangle_85747" data-name="Rectangle 85747" width="372.563" height="263.888" fill="none" stroke="#707070" stroke-width="1.2"></rect></clipPath></defs><g id="Group_283566" data-name="Group 283566" opacity="0.5"><g id="Group_283565" data-name="Group 283565" clip-path="url(#clip-path)"><path id="Path_20183" data-name="Path 20183" d="M46.362,13.418h27.53l23.792,28.21v3.059l66.957,3.059s17.674-2.719,22.772,8.837L202.028,59.3l3.059-4.929,11.556.34-3.228-10.027s-1.643-2.606,2.436-6.571l9.29.113-.907-7.251s-1.473-1.813,3.059-6.344l9.064-.113V19.762s-.567-2.719,3.4-5.551l9.4-.113s.226-4.645,2.832-7.024l1.813-1.02,8.837.567s2.04-3.739,3.4-4.305c0,0,8.837-1.133,11.783,0l1.586-1.133,9.97-.68a6.373,6.373,0,0,1,3.853,2.039l9.4.794s3.626-1.02,5.891,4.078l7.251.567s4.985-.567,5.551,6.911c0,0,7.251.34,7.251.68s4.191,3.853,4.191,3.853v6.231l7.138.68,3.852,4.872-1.473,6.911,7.7.793,3.059,6.118-2.946,7.7,7.025.794,2.945,6.911-4.418,8.95,8.724,1.813,1.813,5.438L361.433,82.3s-2.606,6.458,2.719,6l4.418.023s1.473,4.509,1.359,5.415c0,0,.907,2.153-6.118,6.8,0,0-.68,3.4,2.04,5.212l5.891.906s2.379,7.591-1.813,8.837l-4.418,2.266s-.906,6.118,2.266,6c0,0,3.951,1.813,4.638,2.719v5.438a8.378,8.378,0,0,1-4.156,2.483c-2.328.409-3.629,3.355-3.768,5.334l6,5.325s1.02,6.344-1.813,7.024l-5.891,1.246s-1.586,5.212,1.246,7.025l3.4,2.492s.907,6-1.586,6.684l-6.118.794s-5.1,3.965,3.172,11.669L362,187.778l-7.25-.68-2.492,1.926,4.191,11.216-2.492,4.645s-7.137-2.719-7.591-1.7a6.37,6.37,0,0,0,0,3.965l2.266,7.818-2.379,5.324-2.039.68-7.251-.793,1.926,9.63-2.719,5.324-8.61-.68s.226,10.877-3.965,11.556L316,245.558l-.34,4.418-1.7,2.266-4.447,1.982h-5.948l-2.039,4.674-3.824,2.719h-5.353l-1.614-1.53-2.974,2.634a19.312,19.312,0,0,1-4.164,1.02l-10.282-1.1s-6.458,2.464-15.38-.68c0,0-10.536-2.124-13-5.863,0,0,.765-1.445-5.863-1.784l-4.843-1.02s-1.614-.255-2.889-3.484l-.085-4.758-2.8-1.02s-5.608-.255-7.477-1.02c0,0-1.784-1.784-.085-7.9l-1.1-1.405-17.427,5.569-2.039,5.863s-1.87,4.843-22.857,2.719c0,0-8.667-.594-14.02-3.059l-23.792-4.078s-18.184-3.739-23.622-10.027l-8.582-9.346A29.884,29.884,0,0,1,101.423,208s-2.974-15.04-3.909-19.459.85-9.6-4.164-21.158c0,0-.595-2.379-13-3.569,0,0-13.256-1.1-19.883-9.517l-3.909-4.333s-1.869-.85-1.359-7.9l-14.7-28.55s-1.359-1.445-20.053-3.824c0,0-13.68-.169-16.569-13.85,0,0-5.693-13.6-2.295-22.857,0,0,2.719-9.346,10.452-14.7l-.34-1.076.51-.4s-3.795-4.588.794-14.9c0,0,6.26-12.6,8.213-14.9,0,0,5.778-7.987,19.713-11.981Z" transform="translate(-0.177 -0.177)" fill="none" stroke="#231f20" stroke-width="1.2"></path><path id="Path_20184" data-name="Path 20184" d="M513.477,39.393,512.06,45s-.664,4.928,2.982,2.039l6.385-5.939" transform="translate(-180.883 -13.917)" fill="none" stroke="#231f20" stroke-width="1.2"></path><path id="Path_20185" data-name="Path 20185" d="M528.373,58.663l-1.084,4.5s-.664,4.929,2.982,2.039l5.972-5.778" transform="translate(-186.263 -20.724)" fill="none" stroke="#231f20" stroke-width="1.2"></path><path id="Path_20186" data-name="Path 20186" d="M540.619,81.262l-.824,4.9A1.059,1.059,0,0,0,540,87c.487.611,1.713,1.39,4.319-.676l3.605-3.488" transform="translate(-190.692 -28.708)" fill="none" stroke="#231f20" stroke-width="1.2"></path><path id="Path_20187" data-name="Path 20187" d="M549.465,107.062l1.884,3.577,5.631-2.073" transform="translate(-194.114 -37.823)" fill="none" stroke="#231f20" stroke-width="1.2"></path><path id="Path_20188" data-name="Path 20188" d="M51.734,21.132s9.705,1.273,7.553,9.091S52.6,48.916,37.082,56.167c0,0-11.783,6.118-15.975-.793,0,0-2.4-4.034-.77-7.239" transform="translate(-6.984 -7.465)" fill="none" stroke="#231f20" stroke-width="1.2"></path><path id="Path_20189" data-name="Path 20189" d="M36.558,35.069c-6.652,6.652-9.246,14.842-5.793,18.294s11.642.858,18.293-5.794S58.3,32.727,54.851,29.275,43.209,28.417,36.558,35.069Z" transform="translate(-10.328 -9.802)" fill="none" stroke="#231f20" stroke-width="1.2"></path><path id="Path_20190" data-name="Path 20190" d="M38.9,38.5c-5.74,5.74-8.008,12.777-5.066,15.719s9.979.673,15.719-5.067,8.008-12.777,5.067-15.719S44.636,32.761,38.9,38.5Z" transform="translate(-11.496 -11.357)" fill="none" stroke="#231f20" stroke-width="1.2"></path><path id="Path_20191" data-name="Path 20191" d="M56.659,24.41l6.293,2.212s6.458,7.591-4.532,21.3c0,0-7.7,8.61-9.177,9.63L27.83,61.4S19.8,63.013,18.6,65.256" transform="translate(-6.57 -8.624)" fill="none" stroke="#231f20" stroke-width="1.2"></path><path id="Path_20192" data-name="Path 20192" d="M97.614,21.551,75.274,55.069l-9.29,1.473" transform="translate(-23.311 -7.614)" fill="none" stroke="#231f20" stroke-width="1.2"></path><path id="Path_20193" data-name="Path 20193" d="M67.245,71.026l8.044-1.359a18.66,18.66,0,0,1,12.349-2.833c7.7.227,25.151,1.246,25.151,1.246L60.221,78.05A24.76,24.76,0,0,0,44.473,97.424s-7.024,27.87,12.689,38.633c0,0,9.063,3.852,29.117,0l26.51-1.813s11.652.958,16.469,17.809a41.134,41.134,0,0,1,1.266,15.71c-.883,8.2-.989,25.688,13.988,26.64l.68-.567s-11.669-65.937,23-115.221c0,0,2.379-4.078,11.556-7.477" transform="translate(-15.282 -23.571)" fill="none" stroke="#231f20" stroke-width="1.2"></path><path id="Path_20194" data-name="Path 20194" d="M170.743,72.5l39.766,4.311s-35.687,28.318-27.285,117.879" transform="translate(-60.32 -25.614)" fill="none" stroke="#231f20" stroke-width="1.2"></path><path id="Path_20195" data-name="Path 20195" d="M57.427,38.071l-3.926-4.2L51.688,35.4s-5.155,1.416-6.911,3.059l-1.643.34L42.058,40.56l.736,2.322-1.782-1.133A9.986,9.986,0,0,0,36.9,48.177l5.227,7.392" transform="translate(-13.037 -11.967)" fill="none" stroke="#231f20" stroke-width="1.2"></path><path id="Path_20196" data-name="Path 20196" d="M19.758,69.875s-.467,6.231,3.325,9.007" transform="translate(-6.974 -24.685)" fill="none" stroke="#231f20" stroke-width="1.2"></path><path id="Path_20197" data-name="Path 20197" d="M162.657,107.167c0,11.889-7.406,21.526-16.541,21.526s-16.541-9.637-16.541-21.526,7.406-21.526,16.541-21.526S162.657,95.278,162.657,107.167Z" transform="translate(-45.776 -30.255)" fill="none" stroke="#231f20" stroke-width="1.2"></path><ellipse id="Ellipse_1" data-name="Ellipse 1" cx="14.992" cy="21.526" rx="14.992" ry="21.526" transform="translate(83.799 55.386)" fill="none" stroke="#231f20" stroke-width="1.2"></ellipse><ellipse id="Ellipse_2" data-name="Ellipse 2" cx="14.992" cy="21.526" rx="14.992" ry="21.526" transform="translate(36.548 61.761)" fill="none" stroke="#231f20" stroke-width="1.2"></ellipse><ellipse id="Ellipse_3" data-name="Ellipse 3" cx="12.134" cy="16.541" rx="12.134" ry="16.541" transform="translate(36.548 67.168)" fill="none" stroke="#231f20" stroke-width="1.2"></ellipse><path id="Path_20198" data-name="Path 20198" d="M68.744,105.2S84.956,120.76,67.736,135.6" transform="translate(-23.93 -37.163)" fill="none" stroke="#231f20" stroke-width="1.2"></path><path id="Path_20199" data-name="Path 20199" d="M65.93,106.779s15.029,15.7-1.173,27.64" transform="translate(-22.877 -37.723)" fill="none" stroke="#231f20" stroke-width="1.2"></path><path id="Path_20200" data-name="Path 20200" d="M102.047,173.371s10.545,9.767,7.487,29.934c0,0-1.473,12.455,4.191,19.373l-8.27-.453s-4.418.113-16.994-19.486L72.846,174.959" transform="translate(-25.735 -61.248)" fill="none" stroke="#231f20" stroke-width="1.2"></path><path id="Path_20201" data-name="Path 20201" d="M79.695,175.571s12.2,25.892,23.535,39.374c0,0,3.853,5.665,6.231,6.231a41.357,41.357,0,0,1-1.1-20.612,20.292,20.292,0,0,0,.2-6.353c-.711-5.912-2.884-16.654-9.407-20.278" transform="translate(-28.154 -61.447)" fill="none" stroke="#231f20" stroke-width="1.2"></path><path id="Path_20202" data-name="Path 20202" d="M136.057,249.612s.85,7.818,16.994,6.118l24.245,3.285s19.26-4.305,18.921,26.624c0,0-2.619,36.211,27.411,50.054" transform="translate(-48.066 -88.182)" fill="none" stroke="#231f20" stroke-width="1.2"></path><path id="Path_20203" data-name="Path 20203" d="M162.334,259.072s10.2,4.418,7.137,27.871c0,0-1.9,27.321,25.052,44.59" transform="translate(-57.349 -91.524)" fill="none" stroke="#231f20" stroke-width="1.2"></path><path id="Path_20204" data-name="Path 20204" d="M272.424,148.882s-31.666,8.724-26.567,59.026c0,0-24.472,34.668-2.379,74.775A41.217,41.217,0,0,0,281.336,298.9" transform="translate(-82.752 -52.597)" fill="none" stroke="#231f20" stroke-width="1.2"></path><path id="Path_20205" data-name="Path 20205" d="M286.09,160.794s-27.982,11.556-19.7,51.663c0,0-23.672,39.086,4.538,71.036,0,0,7.138,7.137,22.093,12.4" transform="translate(-90.824 -56.805)" fill="none" stroke="#231f20" stroke-width="1.2"></path><path id="Path_20206" data-name="Path 20206" d="M270.812,144.058s-37.6,8.1-32.158,60.107c0,0-11.475,15.763-10.286,36.085" transform="translate(-80.647 -50.892)" fill="none" stroke="#231f20" stroke-width="1.2"></path><ellipse id="Ellipse_4" data-name="Ellipse 4" cx="6.231" cy="8.61" rx="6.231" ry="8.61" transform="translate(169.45 59.691)" fill="none" stroke="#231f20" stroke-width="1.2"></ellipse><path id="Path_20207" data-name="Path 20207" d="M271.072,92.281c2.236,1.307,3.806,4.367,3.806,7.934,0,4.755-2.657,8.91-6.1,8.91" transform="translate(-94.954 -32.601)" fill="none" stroke="#231f20" stroke-width="1.2"></path><path id="Path_20208" data-name="Path 20208" d="M265.633,107.849c3.441,0,6.231-3.855,6.231-8.61a10.034,10.034,0,0,0-2.426-6.818" transform="translate(-93.842 -32.65)" fill="none" stroke="#231f20" stroke-width="1.2"></path><path id="Path_20209" data-name="Path 20209" d="M264.874,107.241c2.537-1.089,4.38-4.36,4.38-8.224A10.436,10.436,0,0,0,267.4,92.9" transform="translate(-93.574 -32.818)" fill="none" stroke="#231f20" stroke-width="1.2"></path><path id="Path_20210" data-name="Path 20210" d="M265.771,94.017a11.006,11.006,0,0,1,1.072,4.83,9.535,9.535,0,0,1-3.17,7.5" transform="translate(-93.15 -33.214)" fill="none" stroke="#231f20" stroke-width="1.2"></path><path id="Path_20211" data-name="Path 20211" d="M264.14,95.638a9.871,9.871,0,0,1,.418,3.108,10.355,10.355,0,0,1-1.967,6.278" transform="translate(-92.768 -33.787)" fill="none" stroke="#231f20" stroke-width="1.2"></path><ellipse id="Ellipse_5" data-name="Ellipse 5" cx="6.231" cy="8.61" rx="6.231" ry="8.61" transform="translate(129.612 142.509)" fill="none" stroke="#231f20" stroke-width="1.2"></ellipse><path id="Path_20212" data-name="Path 20212" d="M209.473,220.339c2.236,1.307,3.806,4.367,3.806,7.934,0,4.755-2.657,8.91-6.1,8.91" transform="translate(-73.192 -77.841)" fill="none" stroke="#231f20" stroke-width="1.2"></path><path id="Path_20213" data-name="Path 20213" d="M204.034,235.908c3.441,0,6.231-3.855,6.231-8.61a10.035,10.035,0,0,0-2.426-6.818" transform="translate(-72.081 -77.89)" fill="none" stroke="#231f20" stroke-width="1.2"></path><path id="Path_20214" data-name="Path 20214" d="M203.274,235.3c2.538-1.089,4.381-4.36,4.381-8.224a10.436,10.436,0,0,0-1.85-6.122" transform="translate(-71.812 -78.058)" fill="none" stroke="#231f20" stroke-width="1.2"></path><path id="Path_20215" data-name="Path 20215" d="M204.172,222.075a11.014,11.014,0,0,1,1.072,4.83,9.537,9.537,0,0,1-3.17,7.5" transform="translate(-71.388 -78.454)" fill="none" stroke="#231f20" stroke-width="1.2"></path><path id="Path_20216" data-name="Path 20216" d="M202.541,223.7a9.872,9.872,0,0,1,.418,3.108,10.355,10.355,0,0,1-1.967,6.278" transform="translate(-71.006 -79.027)" fill="none" stroke="#231f20" stroke-width="1.2"></path><path id="Path_20217" data-name="Path 20217" d="M280.3,243.307s-26.151,41.465,5.8,68.655c0,0,9.116,5.665,18.293,2.946" transform="translate(-95.464 -85.955)" fill="none" stroke="#231f20" stroke-width="1.2"></path><path id="Path_20218" data-name="Path 20218" d="M287.545,249.612s-15.243,25.831-4.708,49.283c0,0,8.736,13.256,24.421,15.975" transform="translate(-98.609 -88.182)" fill="none" stroke="#231f20" stroke-width="1.2"></path><path id="Path_20219" data-name="Path 20219" d="M477.423,148.74c0,60.162-37.024,104.344-76.11,106.894-40.079,2.613-72.4-41.126-69.336-106.894,2.8-60.1,32.7-105.574,72.723-108.933C451.275,35.9,477.423,88.578,477.423,148.74Z" transform="translate(-117.209 -13.991)" fill="none" stroke="#231f20" stroke-width="1.2"></path><ellipse id="Ellipse_6" data-name="Ellipse 6" cx="21.632" cy="31.851" rx="21.632" ry="31.851" transform="translate(243.997 41.111)" fill="none" stroke="#231f20" stroke-width="1.2"></ellipse><path id="Path_20220" data-name="Path 20220" d="M402.132,65.063c11.947,0,21.5,13.474,20.943,31.056-.562,17.77-9.72,30.421-21.667,30.421" transform="translate(-141.809 -22.985)" fill="none" stroke="#231f20" stroke-width="1.2"></path><ellipse id="Ellipse_7" data-name="Ellipse 7" cx="21.632" cy="31.851" rx="21.632" ry="31.851" transform="translate(296.867 51.293)" fill="none" stroke="#231f20" stroke-width="1.2"></ellipse><path id="Path_20221" data-name="Path 20221" d="M483.882,80.807c11.947,0,21.5,13.474,20.943,31.056-.562,17.77-9.72,30.421-21.667,30.421" transform="translate(-170.689 -28.547)" fill="none" stroke="#231f20" stroke-width="1.2"></path><path id="Path_20222" data-name="Path 20222" d="M478.807,202.054c3.4-3.272,8.05-6.968,12.413-6.968,11.948,0,21.632,14.26,21.632,31.851s-9.685,31.851-21.632,31.851-21.614-13.085-21.614-30.675" transform="translate(-165.901 -68.919)" fill="none" stroke="#231f20" stroke-width="1.2"></path><ellipse id="Ellipse_8" data-name="Ellipse 8" cx="21.632" cy="31.851" rx="21.632" ry="31.851" transform="translate(269.641 101.283)" fill="none" stroke="#231f20" stroke-width="1.2"></ellipse><path id="Path_20223" data-name="Path 20223" d="M493.7,198.071c11.947,0,20.261,11.673,19.7,29.255-.561,17.771-7.758,31.259-19.7,31.259" transform="translate(-174.415 -69.974)" fill="none" stroke="#231f20" stroke-width="1.2"></path><ellipse id="Ellipse_9" data-name="Ellipse 9" cx="21.632" cy="31.851" rx="21.632" ry="31.851" transform="translate(255.386 167.551)" fill="none" stroke="#231f20" stroke-width="1.2"></ellipse><path id="Path_20224" data-name="Path 20224" d="M419.743,260.571c11.947,0,21.5,13.474,20.943,31.056-.562,17.77-9.72,30.421-21.667,30.421" transform="translate(-148.03 -92.054)" fill="none" stroke="#231f20" stroke-width="1.2"></path><ellipse id="Ellipse_10" data-name="Ellipse 10" cx="22.535" cy="33.181" rx="22.535" ry="33.181" transform="translate(218.187 114.886)" fill="none" stroke="#231f20" stroke-width="1.2"></ellipse><path id="Path_20225" data-name="Path 20225" d="M361.26,179.2c12.445,0,20.771,12.66,20.191,30.976-.585,18.512-12.161,30.975-24.607,30.975" transform="translate(-126.065 -63.308)" fill="none" stroke="#231f20" stroke-width="1.2"></path><path id="Path_20226" data-name="Path 20226" d="M403.211,67.419a76.984,76.984,0,0,1-17.888,8.658" transform="translate(-136.126 -23.818)" fill="none" stroke="#231f20" stroke-width="1.2"></path><path id="Path_20227" data-name="Path 20227" d="M437.2,18.912l-4.969,8.043c-2.889,2.549-3.695-1.19-3.695-1.19V14.552l-3.783-2.042-4.433,7.307c-2.9,5.438-3.384-.85-3.384-.85L416.2,9.735l-4.662-1.3a30.385,30.385,0,0,1-2.929,8.157c-2.549,5.268-3.891-.169-3.891-.169l-2.4-9.347h-4.248l-2.831,9.857c-1.641,4.588-3.287,0-3.287,0l-2.814-9.177-5,.85a29.046,29.046,0,0,0-1.246,10.65s-.227,5.212-3.853.793l-3.4-8.724-5.1,2.266a46.276,46.276,0,0,0,0,10.423s-.453,5.551-3.966,2.152c0,0-3.6-6.769-4.786-7.364l-4.334,3.314s-1.189,1.7.765,10.282c0,0,.594,5.438-3.229,3.229,0,0-3.569-5.438-5.948-6.628l-4.249,4.588s.595,6.628,2.295,10.026c0,0,.935,5.523-3.484,3.314,0,0-3.823-4.164-6.2-4.418l-3.824,4.94s-.169,2.2,3.4,8.91c0,0,2.039,2.89-1.359,5.183l-8.242-3.654-3.229,6.033s2.8,7.562,4.419,8.667a4.09,4.09,0,0,1-1.02,4.5s-.85.4-9.092-1.628l-2.124,6.9L322.022,90s2.379,3.908-1.615,4.843h-8.667l-1.7,6.542s5.1,5.948,6.628,6.458c0,0,3.739,3.569-.425,5.523l-8.837,2.124-.973,7.137,7.516,4.588s3.739,3.144-.68,5.523l-7.987,4.079v6.628s3.908,2.8,7.307,3.059c0,0,4.589,1.869.935,5.353l-7.818,5.778.34,6.287s1.1,1.19,8.327,1.87c0,0,4.589,1.869.764,5.1,0,0-6.117,5.863-6.542,6.8l.849,6.712s2.465,1.954,8.327,0c0,0,5.013-.764,1.275,5.013,0,0-5.268,7.307-5.268,7.563s0,5.1,1.784,6.287l8.667-2.634s3.909,0,1.7,3.993l-5.438,9.942,2.549,5.693a15.861,15.861,0,0,0,7.308-3.654s2.039-2.634,3.739,1.614l-4.843,12.321,3.483,4.674a45.9,45.9,0,0,0,6.883-5.608s2.294-3.653,3.484,1.275l-3.4,12.491,3.909,3.484a19.857,19.857,0,0,0,6.628-7.477s2.379-3.569,3.314,2.209c0,0-2.634,9.941-1.444,11.981l4.078,2.209a39.505,39.505,0,0,0,5.778-9.092s1.53-2.464,3.314,1.1l-.595,11.981,4.418,2.039a49.886,49.886,0,0,0,5.1-10.282s1.359-3.144,3.314,1.02c0,0-.184,9.114.935,10.961l4.078.68s1.445-.51,4.079-10.706c0,0,.644-3.314,3.084.255,0,0,1.08,10.366,2.355,10.452l4.7-.3s2.269-9.385,2.269-10.915c0,0,.6-3.229,2.8-1.954l3.654,10.281,3.739-.085" transform="translate(-107.85 -2.498)" fill="none" stroke="#231f20" stroke-width="1.2"></path><path id="Path_20228" data-name="Path 20228" d="M302.488,91.422s4.459,8.752,6.073,9.857c0,0,.64.471-1.484,2.255,0,0-1.887,1.147-9.041.536l-2.124,6.9,5.693,7.647s2.379,3.909-1.615,4.843h-8.667l-1.7,6.543s5.1,5.948,6.628,6.458c0,0,3.739,3.569-.425,5.523l-8.909,2.65-.739,5.418,7.354,5.782s3.739,3.144-.68,5.523l-7.988,4.079v6.628s3.909,2.8,7.308,3.059c0,0,4.589,1.87.935,5.353l-7.818,5.778.34,6.287s1.1,1.19,8.327,1.87c0,0,4.589,1.869.764,5.1,0,0-6.118,5.863-6.543,6.8l.85,6.713a10.165,10.165,0,0,0,6.831,1.518s3.915.512,2.771,3.495c0,0-5.268,7.308-5.268,7.563s0,5.1,1.784,6.287a33.859,33.859,0,0,1,6.49.637,2.817,2.817,0,0,1,2.014,4.129l-3.575,6.536s-2.005,3.909,1.541,5.849c0,0,9.022.933,9.369,1.8l-2.159,8.327s.827,3.825,3.538,5.54c2.79,1.765,7.482,1.414,8.647.917a11.072,11.072,0,0,0,4.5-.595" transform="translate(-100.636 -32.297)" fill="none" stroke="#231f20" stroke-width="1.2"></path><path id="Path_20229" data-name="Path 20229" d="M469.122,387.254s.255-4.928.425-8.837c0,0,1.954-3.059,3.229,0,0,0,1.264,5.353,3.819,8.157" transform="translate(-165.73 -133.206)" fill="none" stroke="#231f20" stroke-width="1.2"></path><path id="Path_20230" data-name="Path 20230" d="M488.349,374.83v-6.458s.4-3.144,2.69-1.445c0,0,3.484,6.628,5.353,7.9" transform="translate(-172.523 -129.449)" fill="none" stroke="#231f20" stroke-width="1.2"></path><path id="Path_20231" data-name="Path 20231" d="M505.832,358.634s-1.586-4.872,0-5.976c0,0,1.416-2.039,3.2,1.1,0,0,2.832,4.39,5.41,5.551" transform="translate(-178.45 -124.356)" fill="none" stroke="#231f20" stroke-width="1.2"></path><path id="Path_20232" data-name="Path 20232" d="M520.572,338.117a2.729,2.729,0,0,1,.68-3.427s1.275-1.3,3.514,1.1c0,0,2.264,2.729,4.558,2.615" transform="translate(-183.787 -118.114)" fill="none" stroke="#231f20" stroke-width="1.2"></path><path id="Path_20233" data-name="Path 20233" d="M426.375,7.271l-1.53-3.229s0-.736,2.889-.736c0,0,1.51,0,3.644,3.115" transform="translate(-150.088 -1.168)" fill="none" stroke="#231f20" stroke-width="1.2"></path><path id="Path_20234" data-name="Path 20234" d="M405.082,14.748l-2.838-3.133s-.177-.715,3-1.5c0,0,1.544-.16,4.644,2.282" transform="translate(-142.103 -3.572)" fill="none" stroke="#231f20" stroke-width="1.2"></path><path id="Path_20235" data-name="Path 20235" d="M384.208,27.7l-2.743-3.8s-.573-1.263,2.609-2.051c0,0,1.544-.16,4.643,2.282" transform="translate(-134.749 -7.72)" fill="none" stroke="#231f20" stroke-width="1.2"></path><path id="Path_20236" data-name="Path 20236" d="M365.062,44.531,362.824,40.8s-1.065-1.945,2.116-2.732c0,0,1.544-.16,4.644,2.282" transform="translate(-128.117 -13.447)" fill="none" stroke="#231f20" stroke-width="1.2"></path><path id="Path_20237" data-name="Path 20237" d="M347.521,65.87l-2.464-3.535s-1.4-2.236,1.782-3.025c0,0,1.844-.668,4.943,1.774" transform="translate(-121.793 -20.923)" fill="none" stroke="#231f20" stroke-width="1.2"></path><path id="Path_20238" data-name="Path 20238" d="M336.158,85.056c-5.015-1.724-6.466-.107-6.88,1.121a1.711,1.711,0,0,0,.358,1.672l2.957,3.354" transform="translate(-116.297 -29.783)" fill="none" stroke="#231f20" stroke-width="1.2"></path><path id="Path_20239" data-name="Path 20239" d="M321.923,112.861c-4.7-.179-6.374,1.091-6.554,2.374a1.714,1.714,0,0,0,.661,1.577l3.856,2.911" transform="translate(-111.408 -39.865)" fill="none" stroke="#231f20" stroke-width="1.2"></path><path id="Path_20240" data-name="Path 20240" d="M312.583,142.571c-4.7-.179-6.374,1.091-6.554,2.374a1.714,1.714,0,0,0,.661,1.577l3.856,2.911" transform="translate(-108.108 -50.361)" fill="none" stroke="#231f20" stroke-width="1.2"></path><path id="Path_20241" data-name="Path 20241" d="M447.737,4.964l-1.529-3.229s0-.265.624-.477a3.063,3.063,0,0,1,3.384,1.083c.466.606,1.089,1.455,1.889,2.623" transform="translate(-157.635 -0.391)" fill="none" stroke="#231f20" stroke-width="1.2"></path><path id="Path_20242" data-name="Path 20242" d="M468.938,7.683l-1.172-2.1s0-.265.624-.477a3.061,3.061,0,0,1,3.384,1.083c.466.606,1.089,1.455,1.889,2.623" transform="translate(-165.251 -1.75)" fill="none" stroke="#231f20" stroke-width="1.2"></path><line id="Line_1" data-name="Line 1" x2="1.021" y2="2.218" transform="translate(315.882 7.793)" fill="none" stroke="#231f20" stroke-width="1.2"></line><line id="Line_2" data-name="Line 2" x1="10.128" y2="0.329" transform="translate(264.628 2.874)" fill="none" stroke="#231f20" stroke-width="1.2"></line><line id="Line_3" data-name="Line 3" x1="9.005" y1="0.409" transform="translate(251.136 7.633)" fill="none" stroke="#231f20" stroke-width="1.2"></line><line id="Line_4" data-name="Line 4" x1="9.226" transform="translate(237.45 16.002)" fill="none" stroke="#231f20" stroke-width="1.2"></line><line id="Line_5" data-name="Line 5" x1="9.742" y1="0.357" transform="translate(224.965 26.993)" fill="none" stroke="#231f20" stroke-width="1.2"></line><line id="Line_6" data-name="Line 6" x1="9.916" y1="0.301" transform="translate(213.349 41.111)" fill="none" stroke="#231f20" stroke-width="1.2"></line><line id="Line_7" data-name="Line 7" x1="10.22" transform="translate(202.815 57.573)" fill="none" stroke="#231f20" stroke-width="1.2"></line><line id="Line_8" data-name="Line 8" x1="10.459" y1="2.431" transform="translate(196.103 75.98)" fill="none" stroke="#231f20" stroke-width="1.2"></line><line id="Line_9" data-name="Line 9" x1="12.346" y1="0.535" transform="translate(188.987 97.702)" fill="none" stroke="#231f20" stroke-width="1.2"></line><line id="Line_10" data-name="Line 10" x1="11.689" y1="0.563" transform="translate(190.503 91.629)" fill="none" stroke="#231f20" stroke-width="1.2"></line><path id="Path_20243" data-name="Path 20243" d="M305.809,174.7s-4.758-.477-4.971,2c0,0-.607,3.495,1.517,3.722l2.481,1.416" transform="translate(-106.251 -61.705)" fill="none" stroke="#231f20" stroke-width="1.2"></path><line id="Line_11" data-name="Line 11" x1="8.528" y1="1.956" transform="translate(186.281 112.332)" fill="none" stroke="#231f20" stroke-width="1.2"></line><line id="Line_12" data-name="Line 12" x1="9.56" y1="0.46" transform="translate(185.543 117.75)" fill="none" stroke="#231f20" stroke-width="1.2"></line><path id="Path_20244" data-name="Path 20244" d="M302.869,207.7s-4.135,0-4.418,3.314c0,0-.121,2.549,2.178,3.059l2.24.255" transform="translate(-105.435 -73.376)" fill="none" stroke="#231f20" stroke-width="1.2"></path><line id="Line_13" data-name="Line 13" x2="10.355" y2="1.972" transform="translate(184.229 133.134)" fill="none" stroke="#231f20" stroke-width="1.2"></line><line id="Line_14" data-name="Line 14" x1="9.346" y2="0.138" transform="translate(184.229 139.625)" fill="none" stroke="#231f20" stroke-width="1.2"></line><path id="Path_20245" data-name="Path 20245" d="M303.965,240.132s-4.135,0-4.418,3.314c0,0-.121,2.549,2.178,3.059l2.24.255" transform="translate(-105.823 -84.833)" fill="none" stroke="#231f20" stroke-width="1.2"></path><line id="Line_15" data-name="Line 15" x2="10.355" y2="1.972" transform="translate(184.938 154.109)" fill="none" stroke="#231f20" stroke-width="1.2"></line><line id="Line_16" data-name="Line 16" x1="9.346" y2="0.138" transform="translate(184.938 160.599)" fill="none" stroke="#231f20" stroke-width="1.2"></line><path id="Path_20246" data-name="Path 20246" d="M308.671,270.79s-4.135,0-4.418,3.314c0,0-.121,2.549,2.178,3.059l3.247.737" transform="translate(-107.485 -95.664)" fill="none" stroke="#231f20" stroke-width="1.2"></path><line id="Line_17" data-name="Line 17" x2="10.355" y2="0.782" transform="translate(187.981 175.126)" fill="none" stroke="#231f20" stroke-width="1.2"></line><line id="Line_18" data-name="Line 18" x1="9.346" y2="0.138" transform="translate(187.981 180.427)" fill="none" stroke="#231f20" stroke-width="1.2"></line><path id="Path_20247" data-name="Path 20247" d="M315.463,300.9s-4.135,0-4.418,3.314c0,0-.121,2.549,2.178,3.059l4.377-.2" transform="translate(-109.885 -106.3)" fill="none" stroke="#231f20" stroke-width="1.2"></path><line id="Line_19" data-name="Line 19" x2="9.57" y2="0.723" transform="translate(193.158 194.656)" fill="none" stroke="#231f20" stroke-width="1.2"></line><line id="Line_20" data-name="Line 20" x1="7.21" y1="0.316" transform="translate(194.511 199.582)" fill="none" stroke="#231f20" stroke-width="1.2"></line><path id="Path_20248" data-name="Path 20248" d="M326.449,328.3s-4.135,0-4.418,3.314a5.758,5.758,0,0,0,3.463,2.807l3.464-.678" transform="translate(-113.766 -115.983)" fill="none" stroke="#231f20" stroke-width="1.2"></path><line id="Line_21" data-name="Line 21" x2="10.855" y2="0.82" transform="translate(198.979 212.284)" fill="none" stroke="#231f20" stroke-width="1.2"></line><path id="Path_20249" data-name="Path 20249" d="M340.69,352.613s-2.711-.349-2.994,2.965c0,0-.324,1.794,1.974,2.3l4.5-.6" transform="translate(-119.295 -124.567)" fill="none" stroke="#231f20" stroke-width="1.2"></path><line id="Line_22" data-name="Line 22" x2="11.779" y2="1.623" transform="translate(208.191 226.857)" fill="none" stroke="#231f20" stroke-width="1.2"></line><line id="Line_23" data-name="Line 23" x1="9.988" y1="1.361" transform="translate(197.399 71.772)" fill="none" stroke="#231f20" stroke-width="1.2"></line><path id="Path_20250" data-name="Path 20250" d="M357.886,372.459a3.245,3.245,0,0,0-1.068,2.974s1.237,3.823,4.976.51" transform="translate(-126.039 -131.581)" fill="none" stroke="#231f20" stroke-width="1.2"></path><path id="Path_20251" data-name="Path 20251" d="M376.887,388.225s-2.038,2.207-1.274,3.567" transform="translate(-132.635 -137.151)" fill="none" stroke="#231f20" stroke-width="1.2"></path><path id="Path_20252" data-name="Path 20252" d="M381.928,391.641s-1.663,2.179-3.763,2.067" transform="translate(-133.597 -138.358)" fill="none" stroke="#231f20" stroke-width="1.2"></path><path id="Path_20253" data-name="Path 20253" d="M396.393,397.816s-2.016,3.038-1.093,4.026" transform="translate(-139.565 -140.539)" fill="none" stroke="#231f20" stroke-width="1.2"></path><path id="Path_20254" data-name="Path 20254" d="M402.051,400.97a7.348,7.348,0,0,1-3.484,2.464" transform="translate(-140.805 -141.654)" fill="none" stroke="#231f20" stroke-width="1.2"></path><line id="Line_24" data-name="Line 24" x1="0.843" y2="2.185" transform="translate(269.751 261.016)" fill="none" stroke="#231f20" stroke-width="1.2"></line><line id="Line_25" data-name="Line 25" x1="1.53" y2="0.764" transform="translate(273.142 261.695)" fill="none" stroke="#231f20" stroke-width="1.2"></line><path id="Path_20255" data-name="Path 20255" d="M457.042,158.183s-7.325-2.577-1.207,12.527" transform="translate(-160.175 -55.824)" fill="none" stroke="#231f20" stroke-width="1.2"></path><path id="Path_20256" data-name="Path 20256" d="M452.145,170.213s-5.158-10.7,0-13.6" transform="translate(-158.923 -55.327)" fill="none" stroke="#231f20" stroke-width="1.2"></path><path id="Path_20257" data-name="Path 20257" d="M427.3,200.412s-6.968-11.811-9.943-3.848" transform="translate(-147.441 -68.467)" fill="none" stroke="#231f20" stroke-width="1.2"></path><path id="Path_20258" data-name="Path 20258" d="M432.86,232.817s-13.363-6.292-13.844-29.868c0,0-.46-12.133,6.922-4.173" transform="translate(-148.027 -69.267)" fill="none" stroke="#231f20" stroke-width="1.2"></path><path id="Path_20259" data-name="Path 20259" d="M463.879,202.479c0,4.083-2.346,7.393-5.241,7.393s-5.242-3.31-5.242-7.393,2.347-7.393,5.242-7.393S463.879,198.4,463.879,202.479Z" transform="translate(-160.175 -68.919)" fill="none" stroke="#231f20" stroke-width="1.2"></path><ellipse id="Ellipse_11" data-name="Ellipse 11" cx="10.932" cy="15.492" rx="10.932" ry="15.492" transform="translate(287.391 118.21)" fill="none" stroke="#231f20" stroke-width="1.2"></ellipse><path id="Path_20260" data-name="Path 20260" d="M463.6,195.872c0,10.577-5.969,19.152-13.332,19.152s-13.332-8.575-13.332-19.152,5.969-19.152,13.332-19.152S463.6,185.295,463.6,195.872Z" transform="translate(-154.359 -62.431)" fill="none" stroke="#231f20" stroke-width="1.2"></path><path id="Path_20261" data-name="Path 20261" d="M452.7,215.561a10.351,10.351,0,0,1-6.582,2.492c-7.363,0-13.331-8.575-13.331-19.152,0-8.63,3.973-15.927,9.436-18.321" transform="translate(-152.892 -63.795)" fill="none" stroke="#231f20" stroke-width="1.2"></path><path id="Path_20262" data-name="Path 20262" d="M436.922,228.95s-6.781,3.338,2.566,9.285c0,0,12.678,4.574,10.894-3.094" transform="translate(-153.515 -80.883)" fill="none" stroke="#231f20" stroke-width="1.2"></path><path id="Path_20263" data-name="Path 20263" d="M446.1,177.022s-6.4-4.779-13.366,5.248" transform="translate(-152.873 -62.136)" fill="none" stroke="#231f20" stroke-width="1.2"></path><path id="Path_20264" data-name="Path 20264" d="M423.531,189.912l3.111-7.129,5.555,4.355" transform="translate(-149.624 -64.573)" fill="none" stroke="#231f20" stroke-width="1.2"></path><path id="Path_20265" data-name="Path 20265" d="M438.754,162.034s-13.357-2.327-20.577,21.354" transform="translate(-147.733 -57.221)" fill="none" stroke="#231f20" stroke-width="1.2"></path><path id="Path_20266" data-name="Path 20266" d="M455.377,198.5a5.644,5.644,0,0,1,2.312,6.731s-1.133,2.306-2.946,2.532" transform="translate(-160.65 -70.126)" fill="none" stroke="#231f20" stroke-width="1.2"></path><path id="Path_20267" data-name="Path 20267" d="M37.7,63.381l-4.964-5.725,2.7-1.667" transform="translate(-11.563 -19.78)" fill="none" stroke="#231f20" stroke-width="1.2"></path><line id="Line_26" data-name="Line 26" x2="8.294" y2="6.882" transform="translate(29.758 30.914)" fill="none" stroke="#231f20" stroke-width="1.2"></line><line id="Line_27" data-name="Line 27" x2="7.784" y2="9.713" transform="translate(31.74 26.496)" fill="none" stroke="#231f20" stroke-width="1.2"></line><line id="Line_28" data-name="Line 28" x2="5.155" y2="5.553" transform="translate(38.651 23.437)" fill="none" stroke="#231f20" stroke-width="1.2"></line><path id="Path_20268" data-name="Path 20268" d="M409.3,79.313S394.233,91.088,381.074,88.1" transform="translate(-134.625 -28.019)" fill="none" stroke="#231f20" stroke-width="1.2"></path><path id="Path_20269" data-name="Path 20269" d="M502.472,276.409c-5.6-29.615,13.178-23.774,13.178-23.774" transform="translate(-177.144 -89.085)" fill="none" stroke="#231f20" stroke-width="1.2"></path><path id="Path_20270" data-name="Path 20270" d="M515.056,238.523s-25.844,1.079-18.641,33.066" transform="translate(-174.925 -84.265)" fill="none" stroke="#231f20" stroke-width="1.2"></path><path id="Path_20271" data-name="Path 20271" d="M471.253,244.336s8.286,3.318,1.35,15.553" transform="translate(-166.483 -86.318)" fill="none" stroke="#231f20" stroke-width="1.2"></path><path id="Path_20272" data-name="Path 20272" d="M431.016,286.464s-8.7,2.593-16.258-2.166l-3.682,1.436-5.36-1.436s-1.041,1.137-6.125,6.007c0,0-4.347,2.15-2.676,19.6" transform="translate(-140.086 -100.436)" fill="none" stroke="#231f20" stroke-width="1.2"></path><path id="Path_20273" data-name="Path 20273" d="M351.236,182.072a45.562,45.562,0,0,0-.778,19.887s5.061,13.822-4.682,14.955c0,0-5.407.908-7.009,4.759" transform="translate(-119.679 -64.322)" fill="none" stroke="#231f20" stroke-width="1.2"></path><path id="Path_20274" data-name="Path 20274" d="M358.219,180.211a45.561,45.561,0,0,0-.778,19.887s4.555,16.691-5.189,17.824c0,0-10.522,2.49-12.123,6.34" transform="translate(-120.16 -63.664)" fill="none" stroke="#231f20" stroke-width="1.2"></path><path id="Path_20275" data-name="Path 20275" d="M382.457,188.294s-7.925,20.181,7.254,26.293" transform="translate(-134.383 -66.52)" fill="none" stroke="#231f20" stroke-width="1.2"></path><path id="Path_20276" data-name="Path 20276" d="M367.094,264.058s-9.262-10.355-19.373-1.815" transform="translate(-122.842 -91.452)" fill="none" stroke="#231f20" stroke-width="1.2"></path><path id="Path_20277" data-name="Path 20277" d="M343.911,256.613s9.482-11.564,23.123,4.027" transform="translate(-121.496 -89.198)" fill="none" stroke="#231f20" stroke-width="1.2"></path></g></g></svg>