<svg xmlns="http://www.w3.org/2000/svg" xmlns:xlink="http://www.w3.org/1999/xlink" width="40" height="40" viewBox="0 0 40 40"><defs><clipPath id="clip-path"><rect id="Rectangle_424" data-name="Rectangle 424" width="40" height="40" transform="translate(-5 -5)" fill="#ed1b24"></rect></clipPath></defs><g id="Group_390" data-name="Group 390" transform="translate(5 5)"><g id="Group_389" data-name="Group 389" clip-path="url(#clip-path)"><path id="Path_1804" data-name="Path 1804" d="M18.632,2.881a4.37,4.37,0,0,1,8.447.959c.77.187.981.461.981,1.273a3.154,3.154,0,0,1-.012.693,4.21,4.21,0,0,1-.3.7,1.211,1.211,0,0,0-.167.409c-.013,1.361-.008,2.721-.008,4.082a2.869,2.869,0,0,1-.431,1.881l.9.247a2.441,2.441,0,0,1,1.952,2.556q0,2.026,0,4.052a.675.675,0,0,1-.019.094H23.965c.278.33.526.6.752.893a10.991,10.991,0,0,1,2.347,6.17.432.432,0,0,0,.264.411,1.4,1.4,0,0,1,.69,1.568A1.449,1.449,0,0,1,26.683,30c-.07,0-.141,0-.212,0H3.525a1.464,1.464,0,0,1-1.583-1.364A1.379,1.379,0,0,1,2.7,27.29a.392.392,0,0,0,.234-.367,11.014,11.014,0,0,1,2.676-6.6c.128-.15.26-.3.428-.486H.04a.442.442,0,0,1-.034-.1c0-1.441-.015-2.883,0-4.324a2.377,2.377,0,0,1,1.773-2.23c1.093-.31,2.192-.6,3.288-.9.077-.021.154-.047.253-.077a3.345,3.345,0,0,0-.007-.508.554.554,0,0,0-.154-.323,3.664,3.664,0,0,1-1.088-1.5c-.032-.08-.14-.187-.212-.186A1.949,1.949,0,0,1,2.308,6.6c-.585-.564-.385-1.291-.331-1.961.04-.5.458-.725.933-.78A4.252,4.252,0,0,1,6.525.086c2.3-.377,3.883.714,4.852,2.775a4.416,4.416,0,0,1,7.256.021m.12,24.194h7.329A10.088,10.088,0,0,0,16.959,17.5a.323.323,0,0,0-.023.084c0,1.682,0,3.364,0,5.045a.431.431,0,0,0,.158.252,9.463,9.463,0,0,1,.848.765,3.777,3.777,0,0,1,.8,3.433m-5.7-9.583a10.042,10.042,0,0,0-9.107,9.583h7.289a3.891,3.891,0,0,1,1.694-4.22.446.446,0,0,0,.131-.325c.008-1.591.006-3.183.005-4.774,0-.088-.009-.177-.013-.265M7.259,15.319c-.51-.679-1-1.325-1.482-1.982a.314.314,0,0,0-.4-.145c-1.095.307-2.193.6-3.288.9a1.443,1.443,0,0,0-1.12,1.462c0,.978,0,1.955,0,2.933v.359h1.95V15.984h.962v.926H7.734c0-.065.007-.1.008-.145a2.474,2.474,0,0,1,2.106-2.711l1.087-.3c-.584-.227-1.165-.372-1.737-.55a.376.376,0,0,0-.493.176c-.462.644-.947,1.271-1.446,1.935m18.874,1.6v-.937h.972v2.868h1.922v-.281c0-.988,0-1.976,0-2.963a1.448,1.448,0,0,0-1.159-1.522c-.9-.249-1.806-.491-2.708-.739-.783-.215-.782-.216-1.267.434-.377.505-.757,1.008-1.154,1.536-.515-.685-1-1.338-1.5-1.984-.058-.075-.177-.177-.243-.161-.647.159-1.289.341-1.932.516.48.2.964.318,1.438.468a2.341,2.341,0,0,1,1.7,1.895,7.839,7.839,0,0,1,.073.871Zm-11.1,11.139H3.631a1.7,1.7,0,0,0-.3.008.48.48,0,0,0,0,.952,1.474,1.474,0,0,0,.271.008H26.4a1.49,1.49,0,0,0,.272-.008.48.48,0,0,0,0-.952,1.69,1.69,0,0,0-.3-.008H15.029M4.845,6.787c0,.72-.029,1.415.007,2.106a2.41,2.41,0,0,0,2.235,2.23A2.344,2.344,0,0,0,9.6,9.2a18.453,18.453,0,0,0,.02-2.412Zm15.475,0c0,.677-.009,1.321,0,1.965a2.424,2.424,0,0,0,2.163,2.366,2.335,2.335,0,0,0,2.563-1.782A18.327,18.327,0,0,0,25.2,6.786Zm-7.739.968c0,.689-.014,1.353,0,2.015A2.422,2.422,0,0,0,14.8,12.089a2.349,2.349,0,0,0,2.551-1.952,18.473,18.473,0,0,0,.019-2.383Zm5.733-2.93a3.349,3.349,0,0,0-6.634,0ZM10.567,3.86C10.576,2.347,8.862.917,7.117.972,5.516,1.022,3.874,2.52,3.96,3.86Zm8.856,0h6.633a3.349,3.349,0,0,0-6.633,0m-4.854,12.6a3.181,3.181,0,0,0-.182-.953,9.245,9.245,0,0,0-.913-1.236.374.374,0,0,0-.315-.106c-1.137.3-2.272.6-3.4.925A1.323,1.323,0,0,0,8.74,16.241,13.363,13.363,0,0,0,8.728,17.8a11.342,11.342,0,0,1,5.841-1.338m6.719,1.348c0-.471,0-.883,0-1.3a1.441,1.441,0,0,0-1.075-1.434c-1.121-.315-2.248-.611-3.37-.925a.273.273,0,0,0-.345.135,9.769,9.769,0,0,1-.782,1.034c-.326.35-.213.734-.224,1.135a11.28,11.28,0,0,1,5.8,1.35m-7.239,4.506h1.9v-4.88h-1.9ZM16.7,27.1a4.1,4.1,0,0,1,.656.006c.357.06.441-.129.494-.423a2.9,2.9,0,1,0-5.664.123c.027.107.121.271.2.279a8.68,8.68,0,0,0,.925.013,1.975,1.975,0,0,1,.53-2.51,1.921,1.921,0,0,1,2.281-.032A1.983,1.983,0,0,1,16.7,27.1M10.658,6.753h8.68v-.93h-8.68Zm16.42-1.9H19.6a1.1,1.1,0,0,1,.737.934h6.741ZM9.664,5.8a1.086,1.086,0,0,1,.714-.938H2.927V5.8Zm.7,4.392a5.6,5.6,0,0,1-.806.971.95.95,0,0,0-.338,1.065c1.273.315,2.526.721,3.841,1.015a5.81,5.81,0,0,0-.005-.595.447.447,0,0,0-.121-.279A3.614,3.614,0,0,1,11.8,10.8a.258.258,0,0,0-.181-.145,2.073,2.073,0,0,1-1.252-.464m15.758-3.4c0,.6-.008,1.168,0,1.74a3.429,3.429,0,0,1-1.308,2.854.448.448,0,0,0-.139.271,4.616,4.616,0,0,0-.006.554c.3.085.59.17.88.246.6.157.779.063.98-.536a1.62,1.62,0,0,0,.072-.5c.005-1.439,0-2.879,0-4.319V6.788ZM3.89,17.917v.952c1.061,0,2.105.026,3.147-.02a1.206,1.206,0,0,0,.658-.436c.089-.093.042-.316.058-.5Zm22.223,0H22.271a.861.861,0,0,0,.858.948q1.04,0,2.081,0h.9ZM20.833,12.2c-.033-.271.019-.576-.108-.746a15.6,15.6,0,0,0-1.117-1.229c-.206.107-.567.179-.69.39-.133.227-.044.584-.049.884a1.379,1.379,0,0,0,.413.973.314.314,0,0,0,.254.085c.419-.1.832-.227,1.3-.357m-4.868,13.92a.967.967,0,1,0-.949.977.974.974,0,0,0,.949-.977M7.258,13.708c.28-.371.516-.709.778-1.025a.7.7,0,0,0,.178-.645H6.275a1.161,1.161,0,0,0,.084.454c.27.408.579.79.9,1.217m15.48,0c.3-.4.554-.755.831-1.1a.639.639,0,0,0,.122-.573H21.756a1.152,1.152,0,0,0,.083.453c.27.408.579.79.9,1.218M14.016,13c0,.729.662,1.081.974,1.682.289-.384.525-.723.788-1.039A.7.7,0,0,0,15.955,13ZM3.861,6.783A.965.965,0,0,0,2.907,7.8a.936.936,0,0,0,.955.883ZM18.4,9.656a.949.949,0,1,0,0-1.9ZM11.6,7.751a.964.964,0,0,0-.954,1.017.938.938,0,0,0,.954.886ZM16.945,13.2a6.553,6.553,0,0,0,1.339-.3l-.448-1.35a3.077,3.077,0,0,1-.538.587.838.838,0,0,0-.365.9c0,.04.006.079.012.163" transform="translate(0 0.001)" fill="#ed1b24"></path></g></g></svg>