<svg xmlns="http://www.w3.org/2000/svg" xmlns:xlink="http://www.w3.org/1999/xlink" width="40" height="40" viewBox="0 0 40 40"><defs><clipPath id="clip-path"><rect id="Rectangle_423" data-name="Rectangle 423" width="40" height="40" transform="translate(-4 -4)" fill="#ed1b24"></rect></clipPath></defs><g id="Group_388" data-name="Group 388" transform="translate(4 4)"><g id="Group_387" data-name="Group 387" clip-path="url(#clip-path)"><path id="Path_1799" data-name="Path 1799" d="M0,21.293c.091-.515.156-1.036.276-1.544a10.019,10.019,0,0,1,2.342-4.466c.063-.07.122-.143.156-.182a4.838,4.838,0,0,1-.259-.853,1.326,1.326,0,0,1,1.172-1.462c.886-.111,1.773-.217,2.662-.3a1.389,1.389,0,0,1,1.524,1.519c-.076.814-.2,1.625-.255,2.441a1.431,1.431,0,0,1-2.269,1.135,6.359,6.359,0,0,0-1.307,2.044A6.612,6.612,0,0,0,10.475,28.7a6.275,6.275,0,0,0,5.856-4.129A6.253,6.253,0,0,0,15,17.547a10.356,10.356,0,0,1-2.951-5.718A9.938,9.938,0,0,1,16.4,1.775,9.551,9.551,0,0,1,21.466.048,1.82,1.82,0,0,0,21.71,0h.82l.932.118A10.164,10.164,0,0,1,32,7.755c.134.557.208,1.129.31,1.694v1.575c-.092.513-.162,1.031-.281,1.538a9.986,9.986,0,0,1-2.39,4.511c-.049.054-.094.111-.1.113a5.181,5.181,0,0,1,.247.971,1.324,1.324,0,0,1-1.181,1.366q-1.33.163-2.664.3a1.365,1.365,0,0,1-1.512-1.4c.063-.962.167-1.924.316-2.877a1.365,1.365,0,0,1,1.91-.966c.094.042.183.095.291.151a6.4,6.4,0,0,0,1.633-3.111,6.634,6.634,0,1,0-11.214,3.24A10,10,0,0,1,20.3,22.967a10.172,10.172,0,0,1-20.188.612C.079,23.341.038,23.1,0,22.868V21.293M22.105,1.1a9.32,9.32,0,0,0-4.131.986,9.156,9.156,0,0,0-4.9,9.484,9.462,9.462,0,0,0,2.653,5.179,7.424,7.424,0,0,1,2.138,6.093,7.668,7.668,0,0,1-9.147,6.805A7.345,7.345,0,0,1,2.833,24.3a7.4,7.4,0,0,1,1.939-7.655c.457-.476.643-.466,1.134-.038a.535.535,0,0,0,.409.131c.094-.024.186-.215.2-.342.091-.676.148-1.356.235-2.032.1-.8,0-.88-.768-.753l-.031,0c-.689.078-1.38.147-2.067.238-.323.043-.405.3-.195.545.075.088.165.162.242.248a.546.546,0,0,1-.012.834c-.072.077-.15.147-.223.223a8.843,8.843,0,0,0-2.462,8.1A9.121,9.121,0,1,0,16.6,15.6a7.533,7.533,0,0,1-2.161-6.27,7.7,7.7,0,0,1,9.241-6.649,7.374,7.374,0,0,1,5.807,5.4,7.4,7.4,0,0,1-2.015,7.637c-.4.408-.618.4-1.044.023a.567.567,0,0,0-.425-.167c-.111.036-.215.243-.234.387-.1.78-.18,1.563-.262,2.346-.033.313.11.463.417.431.794-.083,1.589-.168,2.381-.271.138-.018.352-.105.375-.2a.561.561,0,0,0-.152-.429c-.472-.514-.476-.667.018-1.176a8.947,8.947,0,0,0,2.634-7.335A9.106,9.106,0,0,0,22.105,1.1" fill="#ed1b24"></path><path id="Path_1800" data-name="Path 1800" d="M207.074,65.176a1.206,1.206,0,0,1,.308.093.637.637,0,0,0,.756,0c.124-.093.281-.2.327-.329a.946.946,0,0,1,1.053-.707c.115.007.231.006.347,0a.868.868,0,0,1,.9.635.723.723,0,0,0,1.013.438.9.9,0,0,1,1.143.206c.095.1.191.2.289.29a.883.883,0,0,1,.192,1.091.725.725,0,0,0,.411,1.029.88.88,0,0,1,.655.892c0,.178,0,.356,0,.534a.852.852,0,0,1-.63.843.729.729,0,0,0-.431,1.045.878.878,0,0,1-.178,1.067l-.334.334a.878.878,0,0,1-1.091.188.725.725,0,0,0-1.04.439.871.871,0,0,1-.913.624c-.158,0-.315,0-.473,0a.846.846,0,0,1-.865-.6.737.737,0,0,0-1.083-.45.856.856,0,0,1-1.016-.162c-.137-.13-.272-.263-.4-.4a.843.843,0,0,1-.167-1.011.736.736,0,0,0-.444-1.086.864.864,0,0,1-.611-.858c0-.178,0-.357,0-.535a.851.851,0,0,1,.6-.837.734.734,0,0,0,.466-1.075.866.866,0,0,1,.192-1.062c.279-.278.519-.62,1.028-.635m-.041,1.114c-.037.119-.137.272-.1.34a1.1,1.1,0,0,1-.071,1.265.551.551,0,0,0-.077.205.884.884,0,0,1-.689.733c-.094.029-.159.151-.238.23.081.077.149.195.245.224a.889.889,0,0,1,.685.737.668.668,0,0,0,.1.263.992.992,0,0,1,.047,1.175.246.246,0,0,0,.026.237.3.3,0,0,0,.265.039,1.012,1.012,0,0,1,1.177.055.668.668,0,0,0,.262.105.865.865,0,0,1,.723.657c.033.1.163.172.249.256.079-.082.2-.151.229-.248a.842.842,0,0,1,.715-.662.589.589,0,0,0,.232-.094,1.065,1.065,0,0,1,1.235-.06.265.265,0,0,0,.237-.044.224.224,0,0,0,.045-.214,1.1,1.1,0,0,1,.071-1.291c.065-.1.062-.253.133-.35a3.3,3.3,0,0,1,.42-.466c.132-.125.471-.055.415-.326-.027-.132-.267-.241-.431-.32a2.292,2.292,0,0,1-.746-1.77,2.85,2.85,0,0,0,.142-.348.265.265,0,0,0-.057-.215.269.269,0,0,0-.213-.044,1.734,1.734,0,0,0-.291.117,2.449,2.449,0,0,1-1.77-.618,2.533,2.533,0,0,1-.113-.259.573.573,0,0,0-.073-.172.323.323,0,0,0-.19-.115.266.266,0,0,0-.186.112,1.584,1.584,0,0,0-.123.288,2.579,2.579,0,0,1-1.657.83,3.147,3.147,0,0,1-.351-.139l-.284-.115" transform="translate(-187.558 -58.82)" fill="#ed1b24"></path><path id="Path_1801" data-name="Path 1801" d="M68.719,214.519a.952.952,0,0,1-1.09-.766.756.756,0,0,0-.887-.352,1.214,1.214,0,0,1-1.672-1.58.757.757,0,0,0-.415-.989.921.921,0,0,1-.688-.969q0-.22.006-.44a.879.879,0,0,1,.64-.872.725.725,0,0,0,.439-1.015.9.9,0,0,1,.189-1.119c.12-.118.239-.236.36-.352a.855.855,0,0,1,1.016-.157.734.734,0,0,0,1.068-.43.852.852,0,0,1,.851-.619l.535,0a.861.861,0,0,1,.875.63.727.727,0,0,0,1.043.433.879.879,0,0,1,1.069.172q.18.176.357.356a.871.871,0,0,1,.174,1.066.728.728,0,0,0,.431,1.041.894.894,0,0,1,.639.907c0,.157,0,.315,0,.472a.878.878,0,0,1-.631.878.726.726,0,0,0-.441,1.038.883.883,0,0,1-.188,1.091l-.335.333a.865.865,0,0,1-1.063.184.739.739,0,0,0-1.062.445c-.206.5-.428.62-1.219.619m-2.5-2.069a1.568,1.568,0,0,0,.194-.077.98.98,0,0,1,1.173.046.608.608,0,0,0,.234.09.93.93,0,0,1,.775.727.312.312,0,0,0,.221.193.316.316,0,0,0,.219-.2.925.925,0,0,1,.777-.725.832.832,0,0,0,.318-.132.9.9,0,0,1,1.034-.027c.079.042.26.042.291-.006a.374.374,0,0,0,.018-.32.912.912,0,0,1,.043-1.034.727.727,0,0,0,.123-.288.935.935,0,0,1,.742-.8.334.334,0,0,0,.19-.228c.01-.056-.1-.175-.18-.2a.967.967,0,0,1-.759-.824.812.812,0,0,0-.137-.316.849.849,0,0,1-.038-.947.957.957,0,0,0,.022-.362.926.926,0,0,0-.365.017.847.847,0,0,1-.947-.033.713.713,0,0,0-.257-.115,1.045,1.045,0,0,1-.9-.809.208.208,0,0,0-.394-.007,1.054,1.054,0,0,1-.923.823.716.716,0,0,0-.256.118.809.809,0,0,1-.89.039,1.135,1.135,0,0,0-.395-.038,1.071,1.071,0,0,0,.026.394.826.826,0,0,1-.031.891.955.955,0,0,0-.153.343.969.969,0,0,1-.758.825c-.078.021-.191.143-.181.2a.434.434,0,0,0,.194.231c.18.12.494.183.54.334.186.6.8,1.147.324,1.874-.041.063.066.222.1.336" transform="translate(-58.585 -187.619)" fill="#ed1b24"></path><path id="Path_1802" data-name="Path 1802" d="M236.857,98.268a2.15,2.15,0,1,1,2.123,2.169,2.146,2.146,0,0,1-2.123-2.169m1.076.016a1.073,1.073,0,0,0,1.079,1.076,1.074,1.074,0,0,0,0-2.148,1.063,1.063,0,0,0-1.079,1.072" transform="translate(-216.926 -88.044)" fill="#ed1b24"></path><path id="Path_1803" data-name="Path 1803" d="M100.3,238.794a2.149,2.149,0,0,1-4.3.031,2.149,2.149,0,1,1,4.3-.031m-1.075,0a1.074,1.074,0,0,0-2.148-.01,1.074,1.074,0,1,0,2.148.01" transform="translate(-87.925 -216.737)" fill="#ed1b24"></path></g></g></svg>