<svg xmlns="http://www.w3.org/2000/svg" xmlns:xlink="http://www.w3.org/1999/xlink" width="40" height="40" viewBox="0 0 40 40"><defs><clipPath id="clip-path"><rect id="Rectangle_426" data-name="Rectangle 426" width="40" height="40" transform="translate(-6 -6)" fill="#ed1b24"></rect></clipPath></defs><g id="Group_392" data-name="Group 392" transform="translate(6 6)"><g id="Group_391" data-name="Group 391" clip-path="url(#clip-path)"><path id="Path_1805" data-name="Path 1805" d="M14.806,186.746h.925v-.613q0-1.69,0-3.381c0-.469.149-.616.625-.616H19.43v-.318c0-.934,0-1.868,0-2.8,0-.416.162-.577.576-.578,1.029,0,2.058,0,3.122,0v-.327q0-1.849,0-3.7c0-.438.156-.6.585-.6q1.719,0,3.438,0c.448,0,.6.156.6.614q0,6.328,0,12.655c0,.449-.156.6-.612.6q-6.328,0-12.655.005a1.726,1.726,0,0,0-.552.115,5.117,5.117,0,0,1-4.091-.148.331.331,0,0,0-.251,0,4.966,4.966,0,0,1-4.373,0,.331.331,0,0,0-.251,0,5.018,5.018,0,0,1-4.088.134A1.266,1.266,0,0,1,0,186.46q.033-5.49,0-10.979a1.288,1.288,0,0,1,.869-1.315,4.677,4.677,0,0,1,2.492-.314,6.332,6.332,0,0,1,1.467.388,1.133,1.133,0,0,1,.737,1.187c-.026,1-.007,2-.007,3v.212a17.236,17.236,0,0,1,2.07-.184,6.023,6.023,0,0,1,1.656.328,1.187,1.187,0,0,1,.9,1.338c-.026.3,0,.6,0,.889.438-.082.856-.187,1.281-.234a4.961,4.961,0,0,1,2.3.252,2.614,2.614,0,0,1,.561.289,1.052,1.052,0,0,1,.481.93c-.009,1.387,0,2.774,0,4.16Zm9.269,0h2.738v-12H24.075Zm-.965-7.362H20.37v7.362h2.74Zm-6.433,7.352h2.738v-3.663H16.676ZM.934,176.283c0,.355.013.681,0,1.006a.327.327,0,0,0,.24.374,7.187,7.187,0,0,0,1.112.279,3.8,3.8,0,0,0,2.063-.257c.115-.052.265-.178.275-.281.034-.361.013-.727.013-1.119a5.748,5.748,0,0,1-3.7,0m3.7,2.31a5.759,5.759,0,0,1-3.7.005c0,.363.011.69,0,1.015a.31.31,0,0,0,.225.354,7.39,7.39,0,0,0,1.139.288,3.762,3.762,0,0,0,2.062-.265.5.5,0,0,0,.265-.317c.035-.342.013-.69.013-1.08m0,2.31a5.737,5.737,0,0,1-3.7.007c0,.361.011.688,0,1.013a.31.31,0,0,0,.223.355,7.433,7.433,0,0,0,1.138.288,3.762,3.762,0,0,0,2.062-.264.5.5,0,0,0,.267-.315c.035-.342.013-.69.013-1.084m4.624,0a5.763,5.763,0,0,1-3.7.005c0,.354.015.672-.005.988a.339.339,0,0,0,.253.4,7.18,7.18,0,0,0,1.113.275,3.778,3.778,0,0,0,2.062-.266.5.5,0,0,0,.264-.317c.035-.342.013-.69.013-1.079M.934,183.246c0,.321.017.639-.006.954a.355.355,0,0,0,.27.413,6.956,6.956,0,0,0,1.086.266,3.811,3.811,0,0,0,2.063-.26c.114-.052.262-.179.272-.284.034-.36.013-.725.013-1.093a6.051,6.051,0,0,1-3.7,0m4.624-.013c0,.336.017.654-.006.969a.354.354,0,0,0,.272.412,6.893,6.893,0,0,0,1.086.265,3.809,3.809,0,0,0,2.063-.261c.114-.052.261-.18.271-.285.034-.36.013-.724.013-1.091a6.14,6.14,0,0,1-3.7-.01m4.624,0c0,.336.017.654-.006.969a.354.354,0,0,0,.273.412,6.876,6.876,0,0,0,1.086.265,3.809,3.809,0,0,0,2.063-.261c.114-.052.26-.18.27-.285.033-.359.013-.724.013-1.091a6.12,6.12,0,0,1-3.7-.009m-5.548,2.3a5.751,5.751,0,0,1-3.7,0c0,.354.012.679,0,1a.327.327,0,0,0,.236.376,7.308,7.308,0,0,0,1.111.28,4,4,0,0,0,2.067-.248.406.406,0,0,0,.3-.459c-.025-.3-.006-.6-.006-.949m.925,0c0,.363.015.681-.005,1a.339.339,0,0,0,.257.392,7.2,7.2,0,0,0,1.085.269,3.863,3.863,0,0,0,2.065-.251c.113-.049.274-.156.282-.247.032-.376.013-.756.013-1.16a5.734,5.734,0,0,1-3.7,0m4.624,0c0,.356.013.682,0,1.007a.326.326,0,0,0,.241.373,7.228,7.228,0,0,0,1.112.279,3.812,3.812,0,0,0,2.063-.258c.115-.051.265-.178.274-.282.034-.361.013-.726.013-1.118a5.748,5.748,0,0,1-3.7,0m-9.2-10.317c.792.619,3.147.587,3.6-.038-.695-.616-3.087-.55-3.6.038m8.236,4.62c-.595-.638-3.13-.6-3.6,0,.519.572,2.9.629,3.6,0m4.609,2.326c-.349-.6-3.024-.676-3.584-.016.519.574,2.9.629,3.584.016" transform="translate(0.001 -160.385)" fill="#ed1b24"></path><path id="Path_1806" data-name="Path 1806" d="M35.675,3.107c-.676-.4-1.309-.774-1.949-1.139a.24.24,0,0,0-.215.051q-1.376,1.362-2.737,2.739a.445.445,0,0,0-.084.286c-.007.742-.011,1.483,0,2.225a.643.643,0,0,1-.309.6c-.861.565-1.714,1.141-2.573,1.71-.333.221-.494.2-.784-.089-.485-.482-.962-.973-1.457-1.444a.65.65,0,0,0-.4-.163c-.6-.017-1.194,0-1.791-.009-.38,0-.548-.169-.552-.544,0-.424-.011-.848,0-1.271a.352.352,0,0,0-.209-.362c-.45-.256-.891-.528-1.329-.79A9.359,9.359,0,0,0,19.261,9.73c.661,0,1.324.011,1.987-.005a.731.731,0,0,1,.679.342c.31.441.648.862.963,1.3a.463.463,0,0,0,.427.219c1.021-.011,2.042,0,3.063-.009a.632.632,0,0,1,.612.342c.408.7.831,1.387,1.245,2.081.218.366.18.551-.163.81-.453.343-.9.688-1.365,1.02a.4.4,0,0,0-.189.383c.013.3,0,.592,0,.9H25.61c0-.486-.018-.974.013-1.459.008-.124.151-.263.265-.353.453-.357.92-.7,1.412-1.068-.278-.464-.572-.912-.82-1.384a.592.592,0,0,0-.631-.354c-.963.022-1.926,0-2.889.012a.653.653,0,0,1-.586-.294c-.332-.46-.671-.918-1.027-1.36a.562.562,0,0,0-.371-.191c-.6-.02-1.208-.009-1.816-.009v1.789l-.888.124a11.016,11.016,0,0,1,3.971-10A10.916,10.916,0,0,1,34.523,1.339a10.994,10.994,0,0,1,5.851,8.81l-.933.078a10.2,10.2,0,0,0-3.1-6.453c-.736.613-1.451,1.212-2.172,1.805a.23.23,0,0,0-.078.317c.23.55.434,1.111.669,1.658a.642.642,0,0,1-.086.721c-.42.539-.828,1.088-1.231,1.64a.631.631,0,0,1-.564.279c-.6-.009-1.195-.011-1.791,0a.8.8,0,0,0-.417.135c-.4.28-.788.582-1.2.891.475.715.94,1.421,1.417,2.118a.35.35,0,0,0,.251.083c.453.008.906,0,1.358.006a.458.458,0,0,1,.5.5c.005,1.049,0,2.1,0,3.171H32.08V14.353c-.433,0-.835-.011-1.236,0a.651.651,0,0,1-.624-.327c-.558-.854-1.13-1.7-1.694-2.549-.236-.356-.2-.554.135-.809.553-.418,1.1-.84,1.668-1.242a.913.913,0,0,1,.475-.156c.577-.018,1.156,0,1.733-.015a.53.53,0,0,0,.353-.169c.3-.364.581-.744.85-1.131a.413.413,0,0,0,.042-.33c-.223-.594-.468-1.18-.7-1.769a.512.512,0,0,1,.186-.73l2.109-1.757c.079-.066.154-.136.3-.267M23.751,6.955c.572,0,1.11.012,1.647-.005a.843.843,0,0,1,.686.289c.412.432.847.842,1.26,1.273a.232.232,0,0,0,.363.034c.619-.425,1.251-.83,1.867-1.259a.488.488,0,0,0,.181-.34c.017-.712.016-1.425,0-2.137a.783.783,0,0,1,.254-.613c.816-.8,1.621-1.62,2.436-2.426a1.12,1.12,0,0,1,.276-.149A9.932,9.932,0,0,0,21.9,4.192c.5.3.984.6,1.484.888a.65.65,0,0,1,.375.652c-.017.393,0,.788,0,1.223" transform="translate(-16.804 0.001)" fill="#ed1b24"></path><path id="Path_1807" data-name="Path 1807" d="M191.242,108.964H190.6v-.923c.634,0,1.257-.015,1.88.007a.424.424,0,0,1,.412.471c.006.6,0,1.192,0,1.809h-.911v-.708c-.128.121-.207.192-.282.267q-4.464,4.463-8.922,8.93a.985.985,0,0,1-.789.323c-.671-.021-1.342-.006-2.027-.006v-.925c.5,0,1-.028,1.489.008a1.231,1.231,0,0,0,1.052-.428q4.239-4.279,8.511-8.525c.082-.081.177-.149.266-.223l-.041-.079" transform="translate(-166.069 -99.694)" fill="#ed1b24"></path><rect id="Rectangle_425" data-name="Rectangle 425" width="0.894" height="0.889" transform="translate(12.045 18.536)" fill="#ed1b24"></rect></g></g></svg>